<svg width="120" height="128" viewBox="0 0 120 128" fill="none" xmlns="http://www.w3.org/2000/svg">
<path d="M34.2857 0C39.0268 0 42.8571 3.81333 42.8571 8.53333V17.0667H77.1429V8.53333C77.1429 3.81333 80.9732 0 85.7143 0C90.4554 0 94.2857 3.81333 94.2857 8.53333V17.0667H102.857C112.313 17.0667 120 24.72 120 34.1333V110.933C120 120.347 112.313 128 102.857 128H17.1429C7.6875 128 0 120.347 0 110.933V34.1333C0 24.72 7.6875 17.0667 17.1429 17.0667H25.7143V8.53333C25.7143 3.81333 29.5446 0 34.2857 0ZM17.1429 64V72.5333C17.1429 74.88 19.0714 76.8 21.4286 76.8H30C32.3571 76.8 34.2857 74.88 34.2857 72.5333V64C34.2857 61.6533 32.3571 59.7333 30 59.7333H21.4286C19.0714 59.7333 17.1429 61.6533 17.1429 64ZM51.4286 64V72.5333C51.4286 74.88 53.3571 76.8 55.7143 76.8H64.2857C66.6429 76.8 68.5714 74.88 68.5714 72.5333V64C68.5714 61.6533 66.6429 59.7333 64.2857 59.7333H55.7143C53.3571 59.7333 51.4286 61.6533 51.4286 64ZM90 59.7333C87.6429 59.7333 85.7143 61.6533 85.7143 64V72.5333C85.7143 74.88 87.6429 76.8 90 76.8H98.5714C100.929 76.8 102.857 74.88 102.857 72.5333V64C102.857 61.6533 100.929 59.7333 98.5714 59.7333H90ZM17.1429 98.1333V106.667C17.1429 109.013 19.0714 110.933 21.4286 110.933H30C32.3571 110.933 34.2857 109.013 34.2857 106.667V98.1333C34.2857 95.7867 32.3571 93.8667 30 93.8667H21.4286C19.0714 93.8667 17.1429 95.7867 17.1429 98.1333ZM55.7143 93.8667C53.3571 93.8667 51.4286 95.7867 51.4286 98.1333V106.667C51.4286 109.013 53.3571 110.933 55.7143 110.933H64.2857C66.6429 110.933 68.5714 109.013 68.5714 106.667V98.1333C68.5714 95.7867 66.6429 93.8667 64.2857 93.8667H55.7143ZM85.7143 98.1333V106.667C85.7143 109.013 87.6429 110.933 90 110.933H98.5714C100.929 110.933 102.857 109.013 102.857 106.667V98.1333C102.857 95.7867 100.929 93.8667 98.5714 93.8667H90C87.6429 93.8667 85.7143 95.7867 85.7143 98.1333Z" fill="#EAD196"/>
</svg>
