<svg width="128" height="128" viewBox="0 0 128 128" fill="none" xmlns="http://www.w3.org/2000/svg">
<path d="M18.2857 0C8.2 0 0 8.2 0 18.2857V109.714C0 119.8 8.2 128 18.2857 128H109.714C119.8 128 128 119.8 128 109.714V40.3714C128 35.5143 126.086 30.8571 122.657 27.4286L100.571 5.34286C97.1429 1.91428 92.4857 0 87.6286 0H18.2857ZM27.4286 27.4286C27.4286 22.3714 31.5143 18.2857 36.5714 18.2857H82.2857C87.3429 18.2857 91.4286 22.3714 91.4286 27.4286V45.7143C91.4286 50.7714 87.3429 54.8571 82.2857 54.8571H36.5714C31.5143 54.8571 27.4286 50.7714 27.4286 45.7143V27.4286ZM64 73.1429C74.0857 73.1429 82.2857 81.3429 82.2857 91.4286C82.2857 101.514 74.0857 109.714 64 109.714C53.9143 109.714 45.7143 101.514 45.7143 91.4286C45.7143 81.3429 53.9143 73.1429 64 73.1429Z" fill="#EAD196"/>
</svg>
