<svg width="171" height="128" viewBox="0 0 171 128" fill="none" xmlns="http://www.w3.org/2000/svg">
<path d="M16.0312 0C7.18066 0 0 7.16667 0 16C0 21.0333 2.37129 25.7667 6.4125 28.8L75.8813 80.8C81.5924 85.0667 89.4076 85.0667 95.1187 80.8L164.587 28.8C168.629 25.7667 171 21.0333 171 16C171 7.16667 163.819 0 154.969 0H16.0312ZM0 44V106.667C0 118.433 9.58535 128 21.375 128H149.625C161.415 128 171 118.433 171 106.667V44L104.738 93.6C93.3486 102.133 77.6514 102.133 66.2625 93.6L0 44Z" fill="#EAD196"/>
</svg>
