<svg width="165" height="128" viewBox="0 0 165 128" fill="none" xmlns="http://www.w3.org/2000/svg">
<path d="M0 13.7143C0 6.14286 6.15885 0 13.75 0H132.917C140.508 0 146.667 6.14286 146.667 13.7143V36.9714C139.677 33.7714 131.943 32 123.75 32C98.6276 32 77.4297 48.8 70.8411 71.7714C68.8073 71.4 66.8021 70.5714 65.0833 69.2571L5.5 24.6857C2.03385 22.0857 0 18.0286 0 13.7143ZM68.75 86.8571C68.75 95.0286 70.526 102.743 73.7344 109.714H18.3333C8.22135 109.714 0 101.514 0 91.4286V37.7143L56.8333 80.2286C60.4427 82.9143 64.5391 84.6286 68.7786 85.3429C68.7786 85.8572 68.75 86.3429 68.75 86.8571ZM82.5 86.8571C82.5 64.1429 100.977 45.7143 123.75 45.7143C146.523 45.7143 165 64.1429 165 86.8571C165 109.571 146.523 128 123.75 128C100.977 128 82.5 109.571 82.5 86.8571ZM140.193 69.4571C138.159 67.9714 135.266 68.4286 133.776 70.4571L118.594 91.2857L110.917 83.6286C109.141 81.8572 106.219 81.8572 104.443 83.6286C102.667 85.4 102.667 88.3143 104.443 90.0857L115.901 101.514C116.846 102.457 118.164 102.943 119.51 102.829C120.857 102.714 122.06 102.029 122.862 100.971L141.195 75.8286C142.685 73.8 142.227 70.9143 140.193 69.4571Z" fill="#EAD196"/>
</svg>
