<svg width="128" height="128" viewBox="0 0 128 128" fill="none" xmlns="http://www.w3.org/2000/svg">
<path d="M15.0588 0C6.75294 0 0 6.75294 0 15.0588V105.412C0 113.718 6.75294 120.471 15.0588 120.471H57.4118C52.0706 113.059 48.9412 103.953 48.9412 94.1176C48.9412 70.4471 67.1529 51.0118 90.3529 49.1059V40.1412C90.3529 36.1412 88.7765 32.3059 85.9529 29.4824L60.8706 4.4C58.0471 1.57647 54.2353 0 50.2353 0H15.0588ZM76.5882 41.4118H54.5882C51.4588 41.4118 48.9412 38.8941 48.9412 35.7647V13.7647L76.5882 41.4118ZM128 94.1176C128 75.4118 112.824 60.2353 94.1176 60.2353C75.4118 60.2353 60.2353 75.4118 60.2353 94.1176C60.2353 112.824 75.4118 128 94.1176 128C112.824 128 128 112.824 128 94.1176ZM107.624 79.7882C109.294 81.0118 109.671 83.3647 108.447 85.0353L93.3882 105.741C92.7294 106.635 91.7412 107.2 90.6353 107.271C89.5294 107.341 88.4471 106.965 87.6706 106.188L78.2588 96.7765C76.8 95.3176 76.8 92.9177 78.2588 91.4588C79.7176 90 82.1177 90 83.5765 91.4588L89.8824 97.7647L102.353 80.6118C103.576 78.9412 105.929 78.5647 107.624 79.7882Z" fill="#EFD196"/>
</svg>
