<svg width="128" height="128" viewBox="0 0 128 128" fill="none" xmlns="http://www.w3.org/2000/svg">
<path d="M16.8066 10.6154L25.8101 19.8462H16.8066L49.5193 57.2951L85.0832 93.6923L0 6.61538L6.45252 0L124.999 121.385L118.546 128L94.0868 102.923H76.83V118.308H89.7351V127.538H45.9179V118.308H58.823V102.923H16.8066C14.4056 102.923 12.3048 102 10.5041 100.154C8.7034 98.3077 7.80305 96.1538 7.80305 93.6923V19.8462C7.80305 17.3846 8.72841 15.2308 10.5791 13.3846C12.4299 11.5385 14.5057 10.6154 16.8066 10.6154ZM119.597 102.769L110.743 93.6923H118.996V19.8462L119.597 102.769L29.5615 10.6154H118.996C121.297 10.6154 123.373 11.5641 125.224 13.4615C127.075 15.359 128 17.4872 128 19.8462V93.6923C128 96.1169 127.175 98.2615 125.524 100.126C123.873 101.991 121.898 102.872 119.597 102.769Z" fill="#EAD196"/>
</svg>
