<svg width="115" height="129" viewBox="0 0 115 129" fill="none" xmlns="http://www.w3.org/2000/svg">
<path d="M102.4 29.2571V18.2857C102.4 8.18286 79.4743 0 51.2 0C22.9257 0 0 8.18286 0 18.2857V29.2571C0 39.36 22.9257 47.5429 51.2 47.5429C79.4743 47.5429 102.4 39.36 102.4 29.2571Z" fill="#EAD196"/>
<path d="M0 83.6113C3.38286 85.8513 7.29143 87.657 11.3143 89.097C22.0343 92.9142 36.1371 95.0856 51.2 95.0856C51.8576 95.0856 52.5133 95.0815 53.1671 95.0733L54.8571 116.983C53.6492 117.013 52.4296 117.028 51.2 117.028C22.9257 117.028 0 108.846 0 98.7428V83.6113Z" fill="#EAD196"/>
<path d="M102.4 98.7428V83.6113C99.0171 85.8513 95.1314 87.657 91.0857 89.097L93.7143 105.143C96.1841 102.999 102.4 101.205 102.4 98.7428Z" fill="#EAD196"/>
<path d="M91.4286 77.7143C99.0889 74.5185 102.4 70.3672 102.4 65.8285V47.0399C99.0171 49.2799 95.1314 51.0856 91.0857 52.5256C87.2103 53.9109 82.8976 55.076 78.2614 55.9996L91.4286 77.7143Z" fill="#EAD196"/>
<path d="M50.2857 84.5714V80L54.8571 59.4286C39.8171 59.4286 22.0343 56.3428 11.3143 52.5256C7.29143 51.0856 3.38286 49.2799 0 47.0399V65.8285C0 75.9313 22.0114 84.5714 50.2857 84.5714Z" fill="#EAD196"/>
<path d="M100.574 84.5671C100.574 91.1232 98.4457 97.1795 94.8598 102.093L112.946 120.19C114.732 121.976 114.732 124.875 112.946 126.661C111.161 128.446 108.26 128.446 106.475 126.661L88.388 108.564C83.4735 112.149 77.4161 114.277 70.8586 114.277C54.4435 114.277 41.1429 100.979 41.1429 84.5671C41.1429 68.1552 54.4435 54.8571 70.8586 54.8571C87.2737 54.8571 100.574 68.1552 100.574 84.5671ZM70.8586 105.135C82.2163 105.135 91.431 95.9225 91.431 84.5671C91.431 73.2116 82.2163 63.9986 70.8586 63.9986C59.5009 63.9986 50.2862 73.2116 50.2862 84.5671C50.2862 95.9225 59.5009 105.135 70.8586 105.135Z" fill="#EAD196" stroke="black" stroke-width="0.2"/>
</svg>
