<svg width="96" height="128" viewBox="0 0 96 128" fill="none" xmlns="http://www.w3.org/2000/svg">
<path d="M0 16C0 7.175 7.175 0 16 0H53.375C57.625 0 61.7 1.675 64.7 4.675L91.325 31.325C94.325 34.325 96 38.4 96 42.65V112C96 120.825 88.825 128 80 128H16C7.175 128 0 120.825 0 112V16ZM52 14.625V38C52 41.325 54.675 44 58 44H81.375L52 14.625ZM30 64C26.675 64 24 66.675 24 70C24 73.325 26.675 76 30 76H66C69.325 76 72 73.325 72 70C72 66.675 69.325 64 66 64H30ZM30 88C26.675 88 24 90.675 24 94C24 97.325 26.675 100 30 100H66C69.325 100 72 97.325 72 94C72 90.675 69.325 88 66 88H30Z" fill="#EFD196"/>
</svg>
