<svg width="129" height="121" viewBox="0 0 129 121" fill="none" xmlns="http://www.w3.org/2000/svg">
<path d="M75.5 51.4688C78.7229 51.4688 81.3333 53.6014 81.3333 56.2344C81.3333 58.8674 78.7229 61 75.5 61C72.2771 61 69.6667 58.8674 69.6667 56.2344C69.6667 53.6014 72.2771 51.4688 75.5 51.4688ZM75.5 0C79.3646 0 82.5 2.56152 82.5 5.71875C82.5 5.79023 82.5 5.8498 82.5 5.92129L80.1667 42.14C80.0354 44.1654 77.9792 45.75 75.5 45.75C73.0208 45.75 70.9792 44.1654 70.8333 42.14L68.5 5.92129C68.5 5.8498 68.5 5.79023 68.5 5.71875C68.5 2.56152 71.6354 0 75.5 0Z" fill="#EAD196"/>
<path d="M35.4639 109.182C35.4639 102.758 40.2965 97.5455 46.253 97.5455C52.2096 97.5455 57.0422 102.758 57.0422 109.182C57.0422 115.606 52.2096 120.818 46.253 120.818C40.2965 120.818 35.4639 115.606 35.4639 109.182ZM85.8133 109.182C85.8133 102.758 90.646 97.5455 96.6025 97.5455C102.559 97.5455 107.392 102.758 107.392 109.182C107.392 115.606 102.559 120.818 96.6025 120.818C90.646 120.818 85.8133 115.606 85.8133 109.182Z" fill="#EAD196"/>
<path d="M5.39458 0.5C2.40508 0.5 0 3.09394 0 6.31818C0 9.54242 2.40508 12.1364 5.39458 12.1364H15.5769C16.4535 12.1364 17.1952 12.8152 17.3526 13.7364L29.0633 83.1424C30.4569 91.4333 37.1552 97.4697 44.9773 97.4697H102.497C105.487 97.4697 107.892 94.8758 107.892 91.6515C107.892 88.4273 105.487 85.8333 102.497 85.8333H44.9549C42.3475 85.8333 40.1222 83.8212 39.6502 81.0576L38.5038 74.197H107.5C114.423 74.197 119.602 68.8879 120.884 61.5424L129 15.5H122.5C120 30 116.5 61.5424 108.5 67.5H77H71.5H63.1616H52H35.9639L28.0518 12.1364L27.9619 11.6515C26.883 5.20303 21.6682 0.5 15.5769 0.5H5.39458Z" fill="#EAD196"/>
</svg>
