<svg width="128" height="134" viewBox="0 0 128 134" fill="none" xmlns="http://www.w3.org/2000/svg">
<path d="M64.3995 48.8725V29.2277H44.5843V19.6448H64.3995V0H73.9875V19.6448H93.6429V29.2277H73.9875V48.8725H64.3995ZM36.4009 134C33.2273 134 30.5218 132.871 28.2846 130.612C26.0474 128.354 24.9288 125.639 24.9288 122.467C24.9288 119.295 26.0586 116.591 28.3182 114.355C30.5778 112.119 33.2944 111.001 36.468 111.001C39.6416 111.001 42.3471 112.13 44.5843 114.389C46.8215 116.647 47.9401 119.362 47.9401 122.534C47.9401 125.706 46.8103 128.41 44.5507 130.646C42.2911 132.882 39.5745 134 36.4009 134ZM100.96 134C97.7866 134 95.0811 132.871 92.8439 130.612C90.6067 128.354 89.4881 125.639 89.4881 122.467C89.4881 119.295 90.6179 116.591 92.8775 114.355C95.1371 112.119 97.8537 111.001 101.027 111.001C104.201 111.001 106.906 112.13 109.144 114.389C111.381 116.647 112.499 119.362 112.499 122.534C112.499 125.706 111.37 128.41 109.11 130.646C106.85 132.882 104.134 134 100.96 134ZM0 15.8117V6.22884H18.5368L45.7029 64.3647H91.679L117.293 19.6448H128L102.112 68.0381C100.94 70.0612 99.4192 71.6849 97.5485 72.9094C95.6777 74.1339 93.6302 74.7461 91.4057 74.7461H42.9863L34.0375 91.3564H112.499V100.939H35.4757C31.4636 100.939 28.4098 99.3421 26.3143 96.1478C24.2188 92.9535 24.0766 89.706 25.8876 86.4052L36.1149 67.559L12.4644 15.8117H0Z" fill="#EAD196"/>
</svg>
