<svg width="124" height="128" viewBox="0 0 124 128" fill="none" xmlns="http://www.w3.org/2000/svg">
<path d="M15.5 0C6.95078 0 0 7.65333 0 17.0667V85.3333C0 94.7467 6.95078 102.4 15.5 102.4H50.375L46.5 115.2H29.0625C25.8414 115.2 23.25 118.053 23.25 121.6C23.25 125.147 25.8414 128 29.0625 128H94.9375C98.1586 128 100.75 125.147 100.75 121.6C100.75 118.053 98.1586 115.2 94.9375 115.2H77.5L73.625 102.4H108.5C117.049 102.4 124 94.7467 124 85.3333V17.0667C124 7.65333 117.049 0 108.5 0H15.5Z" fill="#EAD196"/>
</svg>
