<svg width="128" height="128" viewBox="0 0 128 128" fill="none" xmlns="http://www.w3.org/2000/svg">
<path d="M73.1429 9.14286C73.1429 4.08571 69.0571 0 64 0C58.9429 0 54.8571 4.08571 54.8571 9.14286V54.8571H9.14286C4.08571 54.8571 0 58.9429 0 64C0 69.0571 4.08571 73.1429 9.14286 73.1429H54.8571V118.857C54.8571 123.914 58.9429 128 64 128C69.0571 128 73.1429 123.914 73.1429 118.857V73.1429H118.857C123.914 73.1429 128 69.0571 128 64C128 58.9429 123.914 54.8571 118.857 54.8571H73.1429V9.14286Z" fill="#EAD196"/>
</svg>
