<svg width="128" height="128" viewBox="0 0 128 128" fill="none" xmlns="http://www.w3.org/2000/svg">
<path d="M16 16C16 7.175 23.175 0 32 0H85.375C89.625 0 93.7 1.675 96.7 4.675L107.325 15.3C110.325 18.3 112 22.375 112 26.625V36H16V16ZM0 64C0 55.175 7.175 48 16 48H112C120.825 48 128 55.175 128 64V88C128 92.425 124.425 96 120 96H112V112C112 120.825 104.825 128 96 128H32C23.175 128 16 120.825 16 112V96H8C3.575 96 0 92.425 0 88V64ZM32 104V112H96V88H32V104ZM114 68C114 64.675 111.325 62 108 62C104.675 62 102 64.675 102 68C102 71.325 104.675 74 108 74C111.325 74 114 71.325 114 68Z" fill="#EAD196"/>
</svg>
