<svg width="121" height="110" viewBox="0 0 121 110" fill="none" xmlns="http://www.w3.org/2000/svg">
<path d="M14.2222 24.8387C14.2222 11.1109 25.3556 0 39.1111 0C52.8667 0 64 11.1109 64 24.8387C64 38.5665 52.8667 49.6774 39.1111 49.6774C25.3556 49.6774 14.2222 38.5665 14.2222 24.8387ZM0 99.3548C0 77.7984 17.5111 60.3226 39.1111 60.3226C60.7111 60.3226 78.2222 77.7984 78.2222 99.3548V100.685C78.2222 105.831 74.0444 110 68.8889 110H9.33333C4.17778 110 0 105.831 0 100.685V99.3548Z" fill="#2C99FF"/>
<path d="M88.5 10.5C100.278 10.5 109.833 20.0363 109.833 31.7903C109.833 43.5444 100.278 53.0806 88.5 53.0806C76.7222 53.0806 67.1667 43.5444 67.1667 31.7903C67.1667 20.0363 76.7222 10.5 88.5 10.5ZM88.5 63.7258C106.167 63.7258 120.5 78.0303 120.5 95.6613V100.629C120.5 105.73 116.367 109.855 111.256 109.855H79.0778C80.5444 107.083 81.3889 103.911 81.3889 100.54V99.2097C81.3889 87.7883 77.5222 77.2762 71.0556 68.8931C76.0778 65.6331 82.0778 63.7258 88.5 63.7258Z" fill="#2A65BD" fill-opacity="0.88"/>
</svg>
