<svg width="128" height="107" viewBox="0 0 128 107" fill="none" xmlns="http://www.w3.org/2000/svg">
<path d="M0 14.2667C0 6.39771 6.37778 0 14.2222 0H78.2222C86.0667 0 92.4444 6.39771 92.4444 14.2667V21.4H103.711C107.489 21.4 111.111 22.8935 113.778 25.5685L123.844 35.6667C126.511 38.3417 128 41.9752 128 45.7648V78.4667C128 86.3356 121.622 92.7333 113.778 92.7333H113.044C110.733 100.959 103.178 107 94.2222 107C85.2667 107 77.7333 100.959 75.4 92.7333H52.6C50.2889 100.959 42.7333 107 33.7778 107C24.8222 107 17.2889 100.959 14.9556 92.7333H14.2222C6.37778 92.7333 0 86.3356 0 78.4667V14.2667ZM113.778 57.0667V45.7648L103.711 35.6667H92.4444V57.0667H113.778ZM42.6667 87.3833C42.6667 82.4569 38.6889 78.4667 33.7778 78.4667C28.8667 78.4667 24.8889 82.4569 24.8889 87.3833C24.8889 92.3098 28.8667 96.3 33.7778 96.3C38.6889 96.3 42.6667 92.3098 42.6667 87.3833ZM94.2222 96.3C99.1333 96.3 103.111 92.3098 103.111 87.3833C103.111 82.4569 99.1333 78.4667 94.2222 78.4667C89.3111 78.4667 85.3333 82.4569 85.3333 87.3833C85.3333 92.3098 89.3111 96.3 94.2222 96.3Z" fill="#EFD196"/>
</svg>
