<svg width="96" height="128" viewBox="0 0 96 128" fill="none" xmlns="http://www.w3.org/2000/svg">
<path d="M0 16C0 7.175 7.175 0 16 0H53.375C57.625 0 61.7 1.675 64.7 4.675L91.325 31.325C94.325 34.325 96 38.4 96 42.65V112C96 120.825 88.825 128 80 128H16C7.175 128 0 120.825 0 112V16ZM52 14.625V38C52 41.325 54.675 44 58 44H81.375L52 14.625ZM16 22C16 25.325 18.675 28 22 28H34C37.325 28 40 25.325 40 22C40 18.675 37.325 16 34 16H22C18.675 16 16 18.675 16 22ZM16 46C16 49.325 18.675 52 22 52H34C37.325 52 40 49.325 40 46C40 42.675 37.325 40 34 40H22C18.675 40 16 42.675 16 46ZM44 65V66C36.8 66.075 31 71.925 31 79.125C31 85.55 35.625 91.025 41.975 92.075L52.4 93.825C53.9 94.075 55 95.375 55 96.9C55 98.625 53.6 100.025 51.875 100.025L38 100C35.25 100 33 102.25 33 105C33 107.75 35.25 110 38 110H44V111C44 113.75 46.25 116 49 116C51.75 116 54 113.75 54 111V109.825C60.25 108.8 65 103.4 65 96.875C65 90.45 60.375 84.975 54.025 83.925L43.6 82.175C42.1 81.925 41 80.625 41 79.1C41 77.375 42.4 75.975 44.125 75.975H56C58.75 75.975 61 73.725 61 70.975C61 68.225 58.75 65.975 56 65.975H54V64.975C54 62.225 51.75 59.975 49 59.975C46.25 59.975 44 62.225 44 64.975V65Z" fill="#EFD196"/>
</svg>
