<svg width="108" height="128" viewBox="0 0 108 128" fill="none" xmlns="http://www.w3.org/2000/svg">
<path d="M32.9545 5.30909C34.0152 2.13333 36.9563 0 40.283 0H67.7411C71.0679 0 74.0089 2.13333 75.0696 5.30909L77.1429 11.6364H100.286C104.553 11.6364 108 15.103 108 19.3939C108 23.6848 104.553 27.1515 100.286 27.1515H7.71429C3.44732 27.1515 0 23.6848 0 19.3939C0 15.103 3.44732 11.6364 7.71429 11.6364H30.8571L32.9545 5.30909ZM7.71429 38.7879H100.286V112.485C100.286 121.042 93.367 128 84.8571 128H23.1429C14.633 128 7.71429 121.042 7.71429 112.485V38.7879ZM28.9286 54.303C25.7223 54.303 23.1429 56.897 23.1429 60.1212V106.667C23.1429 109.891 25.7223 112.485 28.9286 112.485C32.1348 112.485 34.7143 109.891 34.7143 106.667V60.1212C34.7143 56.897 32.1348 54.303 28.9286 54.303ZM54 54.303C50.7938 54.303 48.2143 56.897 48.2143 60.1212V106.667C48.2143 109.891 50.7938 112.485 54 112.485C57.2063 112.485 59.7857 109.891 59.7857 106.667V60.1212C59.7857 56.897 57.2063 54.303 54 54.303ZM79.0714 54.303C75.8652 54.303 73.2857 56.897 73.2857 60.1212V106.667C73.2857 109.891 75.8652 112.485 79.0714 112.485C82.2777 112.485 84.8571 109.891 84.8571 106.667V60.1212C84.8571 56.897 82.2777 54.303 79.0714 54.303Z" fill="#7D0A0A"/>
</svg>
